# xmcd
# 
# Track frame offsets:
#     150
#     26993
#     49033
#     68318
#     88260
#     108965
#     127720
#     135120
#     157013
#     176128
# 
# Disc length: 2609
# 
# Revision: 3
# Processed by: cddbd v1.5.2PL0 Copyright (c) Steve Scherf et al.
# Submitted via: fre:ac v1.0.17
# 
DISCID=790a2f0a
DTITLE=Don Harriss - Vanishing Point
DYEAR=0
DGENRE=
TTITLE0=Morning Glory
TTITLE1=Pirouettes and Promises
TTITLE2=Invitations
TTITLE3=The Sunlight Samples
TTITLE4=Just Around the Bend
TTITLE5=Transformations
TTITLE6=Vanishing Point Prelude
TTITLE7=Vanishing Point
TTITLE8=The Rajah's Tea Party
TTITLE9=Seventh Journey
EXTD=
EXTT0=
EXTT1=
EXTT2=
EXTT3=
EXTT4=
EXTT5=
EXTT6=
EXTT7=
EXTT8=
EXTT9=
PLAYORDER=
